# xmcd
#
# Track frame offsets:
#	150
#	13131
#	27774
#	42376
#	55939
#	70737
#	90348
#	105992
#	118703
#	132296
#	144976
#	156174
#	169219
#	185808
#
# Disc length: 2740 seconds
#
# Revision: 1
# Processed by: cddbd v1.5.2PL0 Copyright (c) Steve Scherf et al.
# Submitted via: audiograbber 1.83.01
#
DISCID=b90ab20e
DTITLE=Roland Heinrich - Einsam und Ausgebremst
DYEAR=2005
DGENRE=Bluegrass
TTITLE0=Warten auf den Zug
TTITLE1=Mondschein und Wein
TTITLE2=Ben Dewberrys letzte Fahrt
TTITLE3=Treib mir die Trübsal aus
TTITLE4=Betrübter Jodler #3
TTITLE5=Und jetzt ist er im Knast
TTITLE6=Ein Traum unerreicht
TTITLE7=In ferne Länder zieh´n
TTITLE8=Das Land meines Kindheitstraums
TTITLE9=Ich such´ mir eine neue Frau
TTITLE10=Frankie und Jenny
TTITLE11=Wann immer du willst
TTITLE12=Betrübter Jodler #6
TTITLE13=Ich vermiss´ den Mississippi und dich
EXTD=
EXTT0=
EXTT1=
EXTT2=
EXTT3=
EXTT4=
EXTT5=
EXTT6=
EXTT7=
EXTT8=
EXTT9=
EXTT10=
EXTT11=
EXTT12=
EXTT13=
PLAYORDER=
